<mxfile host="app.diagrams.net" modified="2023-07-19T15:24:52.167Z" agent="Mozilla/5.0 (Windows NT 10.0; Win64; x64) AppleWebKit/537.36 (KHTML, like Gecko) Chrome/114.0.0.0 Safari/537.36" etag="6lMmE1nZppMNbcBpucKr" version="21.6.2" type="device">
  <diagram name="Page-1" id="LeqBt3QxtkIke1zQ_wx4">
    <mxGraphModel dx="940" dy="1306" grid="1" gridSize="10" guides="1" tooltips="1" connect="1" arrows="1" fold="1" page="1" pageScale="1" pageWidth="1654" pageHeight="1169" math="0" shadow="0">
      <root>
        <mxCell id="0" />
        <mxCell id="1" parent="0" />
        <mxCell id="7f5UihAbvfZewNqgtJsA-15" value="" style="rounded=0;whiteSpace=wrap;html=1;" parent="1" vertex="1">
          <mxGeometry x="1060" y="60" width="500" height="1200" as="geometry" />
        </mxCell>
        <mxCell id="OSAskZM3fPVOvL9MaifF-22" style="edgeStyle=orthogonalEdgeStyle;rounded=0;orthogonalLoop=1;jettySize=auto;html=1;entryX=1;entryY=0;entryDx=0;entryDy=15;entryPerimeter=0;" edge="1" parent="1" source="7f5UihAbvfZewNqgtJsA-6" target="OSAskZM3fPVOvL9MaifF-14">
          <mxGeometry relative="1" as="geometry" />
        </mxCell>
        <mxCell id="7f5UihAbvfZewNqgtJsA-6" value="User Service" style="verticalLabelPosition=bottom;verticalAlign=top;html=1;shape=mxgraph.basic.polygon;polyCoords=[[0.25,0],[0.75,0],[1,0.25],[1,0.75],[0.75,1],[0.25,1],[0,0.75],[0,0.25]];polyline=0;" parent="1" vertex="1">
          <mxGeometry x="1190" y="90" width="250" height="240" as="geometry" />
        </mxCell>
        <mxCell id="7f5UihAbvfZewNqgtJsA-16" style="edgeStyle=orthogonalEdgeStyle;rounded=0;orthogonalLoop=1;jettySize=auto;html=1;exitX=0.5;exitY=1;exitDx=0;exitDy=0;" parent="1" source="7f5UihAbvfZewNqgtJsA-15" target="7f5UihAbvfZewNqgtJsA-15" edge="1">
          <mxGeometry relative="1" as="geometry" />
        </mxCell>
        <mxCell id="OSAskZM3fPVOvL9MaifF-2" value="-NET 6 Worker Service" style="image;aspect=fixed;html=1;points=[];align=center;fontSize=12;image=img/lib/azure2/compute/Container_Instances.svg;" vertex="1" parent="1">
          <mxGeometry x="1283" y="110" width="64" height="68" as="geometry" />
        </mxCell>
        <mxCell id="OSAskZM3fPVOvL9MaifF-3" value="Event Store" style="image;aspect=fixed;html=1;points=[];align=center;fontSize=12;image=img/lib/azure2/databases/Azure_Database_PostgreSQL_Server.svg;" vertex="1" parent="1">
          <mxGeometry x="1291" y="216" width="48" height="64" as="geometry" />
        </mxCell>
        <mxCell id="OSAskZM3fPVOvL9MaifF-23" style="edgeStyle=orthogonalEdgeStyle;rounded=0;orthogonalLoop=1;jettySize=auto;html=1;entryX=1;entryY=0;entryDx=0;entryDy=155;entryPerimeter=0;" edge="1" parent="1" source="OSAskZM3fPVOvL9MaifF-4" target="OSAskZM3fPVOvL9MaifF-14">
          <mxGeometry relative="1" as="geometry" />
        </mxCell>
        <mxCell id="OSAskZM3fPVOvL9MaifF-27" style="edgeStyle=orthogonalEdgeStyle;rounded=0;orthogonalLoop=1;jettySize=auto;html=1;dashed=1;dashPattern=8 8;exitX=1.025;exitY=0.495;exitDx=0;exitDy=0;exitPerimeter=0;" edge="1" parent="1" source="OSAskZM3fPVOvL9MaifF-4" target="OSAskZM3fPVOvL9MaifF-26">
          <mxGeometry relative="1" as="geometry">
            <mxPoint x="1440" y="506" as="sourcePoint" />
            <mxPoint x="1910" y="276" as="targetPoint" />
            <Array as="points">
              <mxPoint x="1490" y="499" />
              <mxPoint x="1490" y="350" />
              <mxPoint x="1660" y="350" />
            </Array>
          </mxGeometry>
        </mxCell>
        <mxCell id="OSAskZM3fPVOvL9MaifF-4" value="Order / Reporting Service" style="verticalLabelPosition=bottom;verticalAlign=top;html=1;shape=mxgraph.basic.polygon;polyCoords=[[0.25,0],[0.75,0],[1,0.25],[1,0.75],[0.75,1],[0.25,1],[0,0.75],[0,0.25]];polyline=0;" vertex="1" parent="1">
          <mxGeometry x="1190" y="380" width="250" height="240" as="geometry" />
        </mxCell>
        <mxCell id="OSAskZM3fPVOvL9MaifF-5" value="-NET 6 Worker Service" style="image;aspect=fixed;html=1;points=[];align=center;fontSize=12;image=img/lib/azure2/compute/Container_Instances.svg;" vertex="1" parent="1">
          <mxGeometry x="1283" y="400" width="64" height="68" as="geometry" />
        </mxCell>
        <mxCell id="OSAskZM3fPVOvL9MaifF-6" value="Event Store" style="image;aspect=fixed;html=1;points=[];align=center;fontSize=12;image=img/lib/azure2/databases/Azure_Database_PostgreSQL_Server.svg;" vertex="1" parent="1">
          <mxGeometry x="1291" y="506" width="48" height="64" as="geometry" />
        </mxCell>
        <mxCell id="OSAskZM3fPVOvL9MaifF-24" style="edgeStyle=orthogonalEdgeStyle;rounded=0;orthogonalLoop=1;jettySize=auto;html=1;" edge="1" parent="1" source="OSAskZM3fPVOvL9MaifF-7" target="OSAskZM3fPVOvL9MaifF-14">
          <mxGeometry relative="1" as="geometry" />
        </mxCell>
        <mxCell id="OSAskZM3fPVOvL9MaifF-7" value="Product Catalog" style="verticalLabelPosition=bottom;verticalAlign=top;html=1;shape=mxgraph.basic.polygon;polyCoords=[[0.25,0],[0.75,0],[1,0.25],[1,0.75],[0.75,1],[0.25,1],[0,0.75],[0,0.25]];polyline=0;" vertex="1" parent="1">
          <mxGeometry x="1190" y="660" width="250" height="240" as="geometry" />
        </mxCell>
        <mxCell id="OSAskZM3fPVOvL9MaifF-8" value="-NET 6 Worker Service" style="image;aspect=fixed;html=1;points=[];align=center;fontSize=12;image=img/lib/azure2/compute/Container_Instances.svg;" vertex="1" parent="1">
          <mxGeometry x="1283" y="680" width="64" height="68" as="geometry" />
        </mxCell>
        <mxCell id="OSAskZM3fPVOvL9MaifF-9" value="Event Store" style="image;aspect=fixed;html=1;points=[];align=center;fontSize=12;image=img/lib/azure2/databases/Azure_Database_PostgreSQL_Server.svg;" vertex="1" parent="1">
          <mxGeometry x="1291" y="786" width="48" height="64" as="geometry" />
        </mxCell>
        <mxCell id="OSAskZM3fPVOvL9MaifF-25" style="edgeStyle=orthogonalEdgeStyle;rounded=0;orthogonalLoop=1;jettySize=auto;html=1;entryX=1;entryY=0;entryDx=0;entryDy=435;entryPerimeter=0;" edge="1" parent="1" source="OSAskZM3fPVOvL9MaifF-10" target="OSAskZM3fPVOvL9MaifF-14">
          <mxGeometry relative="1" as="geometry" />
        </mxCell>
        <mxCell id="OSAskZM3fPVOvL9MaifF-10" value="Shop Service&amp;nbsp;&lt;br&gt;" style="verticalLabelPosition=bottom;verticalAlign=top;html=1;shape=mxgraph.basic.polygon;polyCoords=[[0.25,0],[0.75,0],[1,0.25],[1,0.75],[0.75,1],[0.25,1],[0,0.75],[0,0.25]];polyline=0;" vertex="1" parent="1">
          <mxGeometry x="1190" y="940" width="250" height="240" as="geometry" />
        </mxCell>
        <mxCell id="OSAskZM3fPVOvL9MaifF-11" value="-NET 6 Worker Service" style="image;aspect=fixed;html=1;points=[];align=center;fontSize=12;image=img/lib/azure2/compute/Container_Instances.svg;" vertex="1" parent="1">
          <mxGeometry x="1283" y="960" width="64" height="68" as="geometry" />
        </mxCell>
        <mxCell id="OSAskZM3fPVOvL9MaifF-12" value="Event Store" style="image;aspect=fixed;html=1;points=[];align=center;fontSize=12;image=img/lib/azure2/databases/Azure_Database_PostgreSQL_Server.svg;" vertex="1" parent="1">
          <mxGeometry x="1291" y="1066" width="48" height="64" as="geometry" />
        </mxCell>
        <mxCell id="OSAskZM3fPVOvL9MaifF-14" value="Event Bus&lt;br&gt;(Rabbit MQ)" style="shape=cylinder3;whiteSpace=wrap;html=1;boundedLbl=1;backgroundOutline=1;size=15;" vertex="1" parent="1">
          <mxGeometry x="900" y="380" width="90" height="590" as="geometry" />
        </mxCell>
        <mxCell id="OSAskZM3fPVOvL9MaifF-21" style="edgeStyle=orthogonalEdgeStyle;rounded=0;orthogonalLoop=1;jettySize=auto;html=1;" edge="1" parent="1" source="OSAskZM3fPVOvL9MaifF-15" target="OSAskZM3fPVOvL9MaifF-14">
          <mxGeometry relative="1" as="geometry" />
        </mxCell>
        <mxCell id="OSAskZM3fPVOvL9MaifF-15" value="Web API" style="verticalLabelPosition=bottom;verticalAlign=top;html=1;shape=mxgraph.basic.polygon;polyCoords=[[0.25,0],[0.75,0],[1,0.25],[1,0.75],[0.75,1],[0.25,1],[0,0.75],[0,0.25]];polyline=0;" vertex="1" parent="1">
          <mxGeometry x="490" y="555" width="250" height="240" as="geometry" />
        </mxCell>
        <mxCell id="OSAskZM3fPVOvL9MaifF-16" value="-NET 6 ASP.NET Core API" style="image;aspect=fixed;html=1;points=[];align=center;fontSize=12;image=img/lib/azure2/compute/Container_Instances.svg;" vertex="1" parent="1">
          <mxGeometry x="583" y="641" width="64" height="68" as="geometry" />
        </mxCell>
        <mxCell id="OSAskZM3fPVOvL9MaifF-26" value="SMTP Gateway" style="sketch=0;pointerEvents=1;shadow=0;dashed=0;html=1;strokeColor=none;fillColor=#505050;labelPosition=center;verticalLabelPosition=bottom;verticalAlign=top;outlineConnect=0;align=center;shape=mxgraph.office.communications.smtp_connector;" vertex="1" parent="1">
          <mxGeometry x="1600" y="198" width="110" height="100" as="geometry" />
        </mxCell>
      </root>
    </mxGraphModel>
  </diagram>
</mxfile>
